<svg xmlns="http://www.w3.org/2000/svg" width="952.371" height="952.371"  xmlns:v="https://vecta.io/nano"><path d="M758.57 897.774c11.102 7.5 26.201 1.7 29.5-11.2l16.5-65c1.301-5.1-2.5-10-7.799-10h-111c-6.701 0-10.4 7.7-6.301 12.9 27.901 35.4 58.702 59.5 79.1 73.3zm-723.599-388.4c28.3 56.4 54.6 117.7 45.2 177.5-.8 5.301 3.3 10.101 8.7 10.101h39c2.8 0 5.4-1.3 7-3.5 47.3-64 111.3-84 111.3-84 57.8-17.4 120.1-32.8 160.1-32.8 74.6 0 92.401 61.199 96.401 84.6a10.84 10.84 0 0 0 10.699 9c4.801 0 9.4-2 12.6-5.6l34.701-38.4c3.5-3.8 9.799-1.9 10.6 3.1 10.699 67.101 63.5 136.301 73.5 141.7.9.5 1.9.7 2.9.7h155.1c3.199 0 5.799-2.4 6.1-5.5 5.5-58.8 95.699-143.7 130.199-174.3 8.5-7.5 13.301-18.2 13.301-29.5v-74.101c0-1-.199-1.899-.6-2.8l-88-176c-.6-1.3-1.701-2.3-3-2.9-72.1-32.9-68.201-115-66.801-129.9.1-1.5-.299-3.1-1.199-4.3l-21.201-27.6c-2-2.6-5.799-3.2-8.5-1.2l-9.699 7c0-42.6-17.699-79.1-27.6-96.3-2.6-4.5-9.201-4-11.1.8l-20.201 52.2c-.299.7-.4 1.5-.4 2.2-.1 43.3-7.299 72.4-15 91.1-6.898 16.8-27.398 23-42.6 13.1l-95-62c-3.1-2-3.699-6.2-1.4-9.1l46.701-56.7c3.299-4 .4-10.1-4.801-10.1h-145.4c-1.6 0-3.1.6-4.2 1.7l-47.699 45c-2.5 2.4-2.601 6.4-.101 8.8l12.601 12.7c-40.601 13.5-67.9-13.9-77.7-26.2-2.3-2.8-6.5-3.1-9.101-.6l-104.3 100.5c-.9.9-1.6 2-1.8 3.3-11 63.5-133.3 106.7-171.6 118.7a20.98 20.98 0 0 0-14.2 15.2l-17.9 74.6c-1.1 4.7-.6 9.601 1.4 13.9 9.8 20.9 21.5 43 33 65.9z"/></svg>