<svg xmlns="http://www.w3.org/2000/svg" viewBox="0 0 512 512"  xmlns:v="https://vecta.io/nano"><path d="M256 0C114.516 0 0 114.496 0 256c0 141.484 114.496 256 256 256 141.484 0 256-114.496 256-256C512 114.516 397.504 0 256 0zm0 472c-119.379 0-216-96.609-216-216 0-119.379 96.609-216 216-216 119.379 0 216 96.609 216 216 0 119.379-96.609 216-216 216zm57.887-186.398C318.527 276.547 321 266.465 321 256c0-35.922-29.07-65-65-65-10.469 0-20.547 2.473-29.602 7.113l-69.391-69.391c-7.812-7.812-20.477-7.812-28.285 0s-7.812 20.473 0 28.285l69.391 69.391C193.473 235.453 191 245.535 191 256c0 35.922 29.07 65 65 65 10.469 0 20.547-2.473 29.602-7.113l16.359 16.359c7.809 7.809 20.477 7.813 28.285 0s7.813-20.473 0-28.285zM256 281a24.99 24.99 0 0 1-25-25c0-13.77 11.16-25 25-25a24.99 24.99 0 0 1 25 25c0 13.77-11.16 25-25 25zm0 0"/></svg>