<svg id="Capa_1" enable-background="new 0 0 512 512" height="512" viewBox="0 0 512 512" width="512" xmlns="http://www.w3.org/2000/svg"><g><path d="m331 196h75v75h-75z"/><path d="m436 301h76v75h-76z"/><path d="m331 301h75v75h-75z"/><path d="m512 76c0-8.401-6.599-15-15-15h-106v15c0 8.399 6.599 15 15 15s15 6.599 15 15c0 8.399-6.599 15-15 15-24.901 0-45-20.101-45-45v-15h-120v15c0 8.399 6.599 15 15 15s15 6.599 15 15c0 8.399-6.599 15-15 15-24.901 0-45-20.101-45-45v-15h-120v15c0 8.399 6.599 15 15 15s15 6.599 15 15c0 8.399-6.599 15-15 15-24.901 0-45-20.101-45-45v-15h-46c-8.401 0-15 6.599-15 15v90h512z"/><path d="m436 196h76v75h-76z"/><path d="m331 406h75v75h-75z"/><path d="m139.918 390.557c-1.893-8.115-5.81-15.69-11.799-21.661-6.006-6.006-13.694-9.899-21.813-11.79-.764 12.795.782 24.196 2.287 31.243 7.049 1.461 18.493 2.979 31.325 2.208z"/><path d="m213.461 317.014c.767-12.788-.742-24.199-2.212-31.263-7.073-1.463-18.492-2.97-31.284-2.201 1.891 8.117 5.81 15.698 11.801 21.669 5.972 5.991 13.608 9.897 21.695 11.795z"/><path d="m15 481h286v-285h-301v270c0 8.291 6.709 15 15 15zm91.908-196.978c31.009-31.002 82.361-37.714 121.421-24.829 4.482 1.479 7.998 4.995 9.478 9.478 13.31 39.554 5.667 90.917-24.829 121.421-32.263 32.263-83.168 37.579-121.421 24.829-4.482-1.479-7.998-4.995-9.478-9.478-13.301-39.53-5.665-90.933 24.829-121.421z"/><path d="m436 481h61c8.291 0 15-6.709 15-15v-60h-76z"/><path d="m169.076 384.097c7.958-3.38 15.716-8.245 22.69-15.216 6.925-6.929 11.786-14.628 15.167-22.529-13.64-3.124-26.342-9.857-36.392-19.907-10.049-10.049-16.608-22.787-19.731-36.425-7.958 3.38-15.716 8.243-22.69 15.214-6.984 6.984-11.88 14.72-15.28 22.637 13.693 3.107 26.413 9.706 36.506 19.799 10.048 10.049 16.606 22.787 19.73 36.427z"/><path d="m91 46c0-8.401-6.599-15-15-15s-15 6.599-15 15v15h30z"/><path d="m241 46c0-8.401-6.599-15-15-15s-15 6.599-15 15v15h30z"/><path d="m391 46c0-8.401-6.599-15-15-15s-15 6.599-15 15v15h30z"/></g></svg>