<svg xmlns="http://www.w3.org/2000/svg" viewBox="0 0 512.001 512.001"  xmlns:v="https://vecta.io/nano"><path d="M436 331.001h-60c-42.627 0-80.24 20.246-105 51.194v-91.928c16.972-32.054 46.419-55.01 81.702-63.47 10.424 8.735 23.67 14.204 38.298 14.204 33.076 0 60-26.909 60-60s-26.924-60-60-60-60 26.909-60 60c0 6.916 1.414 13.458 3.576 19.645-24.291 7.742-46 21.147-63.576 39.034v-91.198c34.199-6.969 60-37.266 60-73.482 0-41.353-33.633-75-75-75s-75 33.647-75 75c0 36.216 25.801 66.513 60 73.482v53.712c-24.76-30.947-62.373-51.193-105-51.193H76c-8.291 0-15 6.709-15 15 0 74.443 60.557 135 135 135h45v118.68c-17.576-17.888-39.285-31.293-63.576-39.034 2.162-6.188 3.576-12.73 3.576-19.646 0-33.091-26.924-60-60-60s-60 26.909-60 60 26.924 60 60 60c14.628 0 27.874-5.469 38.298-14.203 35.283 8.459 64.73 31.415 81.702 63.47v26.733c0 8.291 6.709 15 15 15s15-6.709 15-15v-16h45c74.443 0 135-60.557 135-135 0-8.291-6.708-15-15-15z"/></svg>