<svg id="Capa_1" enable-background="new 0 0 512 512" height="512" viewBox="0 0 512 512" width="512" xmlns="http://www.w3.org/2000/svg"><g><path d="m255.689 442.92c-6.165-9.764-9.096-21.483-8.252-32.999l1.062-14.502c1.265-17.278 10.364-32.535 24.964-41.859s32.267-11.163 48.474-5.044c6.033 2.278 12.602 2.091 18.495-.523l64.898-28.791c15.593-6.917 33.783-6.064 48.66 2.282l42.056 23.598c8.773-23.621 14.031-48.599 15.507-74.296h-255.553c-8.284 0-15-6.716-15-15v-73.687l-19.888 20.258c-3.496 3.563-7.62 6.31-12.257 8.163l-39.789 15.915c-1.807.748-3.761 1.147-5.753 1.147h-53.619c-2.689 0-4.185 1.599-4.836 2.552s-1.6 2.926-.624 5.433l22.127 56.85c.605 1.556 1.851 2.782 3.415 3.364l52.857 19.669c9.558 3.557 17.171 11.044 20.888 20.54 3.716 9.497 3.206 20.162-1.398 29.261l-20.087 39.688c-4.681 9.247-13.126 16.014-23.172 18.563-2.912.739-5.877 1.103-8.824 1.104-7.22 0-14.345-2.182-20.397-6.368l-29.293-20.263c-1.071-.74-2.377-1.103-3.676-1.03l-52.253 3.055c8.936 13.051 19.133 25.377 30.56 36.805 48.353 48.352 112.64 74.98 181.02 74.98 13.902 0 27.63-1.12 41.095-3.28z"/><path d="m27.321 370.948 67.602-3.953c.688-.04 1.376-.06 2.063-.06 7.262 0 14.444 2.227 20.43 6.367l29.292 20.262c1.906 1.319 3.811 1.106 4.775.859.965-.244 2.738-.964 3.785-3.032l20.087-39.688c1.03-2.035.586-3.869.229-4.781-.356-.911-1.274-2.561-3.413-3.355l-52.855-19.669c-9.58-3.563-17.202-11.072-20.911-20.6l-22.127-56.851c-4.297-11.039-2.87-23.469 3.817-33.248s17.753-15.617 29.6-15.617h50.726l37.296-14.918c.753-.301 1.421-.745 1.987-1.322l41.296-42.067v-139.043c-62.739 3.601-121.22 29.735-166.02 74.534-48.351 48.352-74.98 112.639-74.98 181.019 0 40.032 9.421 79.645 27.321 115.163z"/><path d="m417.496 346.623-64.897 28.791c-13.147 5.835-27.8 6.248-41.257 1.168-2.826-1.066-5.752-1.594-8.656-1.594-4.563 0-9.075 1.301-13.075 3.855-6.545 4.18-10.624 11.02-11.191 18.766l-1.062 14.502c-.378 5.163.936 10.416 3.699 14.793l47.07 74.559c33.724-9.912 65.531-26.962 92.546-49.681 26.004-21.868 47.644-49.033 63.154-79.157l-44.517-24.979c-6.669-3.741-14.824-4.125-21.814-1.023z"/><path d="m271 .215v240.57h26.28v-33.121c0-20.913 17.015-37.927 37.928-37.927h33.646v-18.297c0-20.913 17.015-37.928 37.928-37.928h33.646v-18.296c0-4.977.973-9.728 2.723-14.086-2.007-2.147-4.042-4.276-6.131-6.365-44.799-44.798-103.282-70.949-166.02-74.55z"/><path d="m504.073 87.289h-25.719c-4.371 0-7.928 3.556-7.928 7.927v33.297 112.272h41.144.43v-145.569c0-4.371-3.556-7.927-7.927-7.927z"/><path d="m398.854 151.44v33.297 56.048h41.573v-97.272h-33.646c-4.371 0-7.927 3.556-7.927 7.927z"/><path d="m327.28 207.664v33.121h41.573v-41.048h-33.646c-4.37 0-7.927 3.556-7.927 7.927z"/></g></svg>