<?xml version="1.0" encoding="iso-8859-1"?>
<!-- Generator: Adobe Illustrator 19.0.0, SVG Export Plug-In . SVG Version: 6.00 Build 0)  -->
<svg version="1.1" id="Capa_1" xmlns="http://www.w3.org/2000/svg" xmlns:xlink="http://www.w3.org/1999/xlink" x="0px" y="0px"
	 viewBox="0 0 458.793 458.793" style="enable-background:new 0 0 458.793 458.793;" xml:space="preserve">
<g>
	<g>
		<path d="M456.224,330.586c-3.376-8.103-9.817-14.544-17.92-17.92V196.442c1.549-2.318,2.595-4.934,3.072-7.68
			c-0.036-5.217-3.006-9.969-7.68-12.288L225.824,83.29c-3.235-1.562-7.005-1.562-10.24,0L7.712,176.474
			c-4.96,1.99-8.064,6.958-7.68,12.288c0.047,5.282,3.605,9.886,8.704,11.264l71.168,24.576v92.16c0,4.029,1.897,7.823,5.12,10.24
			c3.401,2.501,7.847,3.081,11.776,1.536c79.757-29.701,167.539-29.701,247.296,0l4.608,1.024c2.6-0.073,5.11-0.969,7.168-2.56
			c3.558-2.175,5.7-6.07,5.632-10.24V224.09l51.2-16.896v105.472c-16.966,7.069-24.989,26.554-17.92,43.52
			s26.554,24.989,43.52,17.92C455.27,367.036,463.293,347.552,456.224,330.586z"/>
	</g>
</g>
<g>
</g>
<g>
</g>
<g>
</g>
<g>
</g>
<g>
</g>
<g>
</g>
<g>
</g>
<g>
</g>
<g>
</g>
<g>
</g>
<g>
</g>
<g>
</g>
<g>
</g>
<g>
</g>
<g>
</g>
</svg>
