<?xml version="1.0" encoding="iso-8859-1"?>
<!-- Generator: Adobe Illustrator 18.0.0, SVG Export Plug-In . SVG Version: 6.00 Build 0)  -->
<!DOCTYPE svg PUBLIC "-//W3C//DTD SVG 1.1//EN" "http://www.w3.org/Graphics/SVG/1.1/DTD/svg11.dtd">
<svg version="1.1" id="Capa_1" xmlns="http://www.w3.org/2000/svg" xmlns:xlink="http://www.w3.org/1999/xlink" x="0px" y="0px"
	 viewBox="0 0 474.657 474.657" style="enable-background:new 0 0 474.657 474.657;" xml:space="preserve">
<g>
	<path d="M449.115,211.786H262.87V51.084h120.875c14.109,0,25.542-11.433,25.542-25.542C409.288,11.433,397.855,0,383.746,0H237.328
		c-14.111,0-25.542,11.433-25.542,25.542v186.244H51.099L51.084,90.911c0-14.11-11.441-25.542-25.542-25.542
		C11.431,65.369,0,76.81,0,90.911l0.015,146.417c0,14.11,11.433,25.542,25.542,25.542h186.229v160.702H90.909
		c-14.109,0-25.542,11.433-25.542,25.542s11.433,25.542,25.542,25.542h146.419c14.109,0,25.542-11.433,25.542-25.542V262.871
		h160.703v120.877c0,14.109,11.431,25.542,25.542,25.542c14.109,0,25.542-11.433,25.542-25.542V237.328
		C474.657,223.219,463.224,211.786,449.115,211.786z"/>
	<path d="M126.646,176.317c22.73,0,41.172-18.424,41.172-41.157c0-22.731-18.441-41.172-41.172-41.172
		c-22.732,0-41.157,18.441-41.157,41.172C85.489,157.893,103.914,176.317,126.646,176.317z"/>
	<path d="M348.01,93.988c-22.732,0-41.156,18.441-41.156,41.172c0,22.732,18.424,41.157,41.156,41.157
		c22.731,0,41.173-18.424,41.173-41.157C389.183,112.429,370.741,93.988,348.01,93.988z"/>
	<path d="M126.646,380.653c22.73,0,41.172-18.424,41.172-41.157c0-22.731-18.441-41.172-41.172-41.172
		c-22.732,0-41.157,18.441-41.157,41.172C85.489,362.229,103.914,380.653,126.646,380.653z"/>
	<path d="M348.01,298.325c-22.732,0-41.156,18.441-41.156,41.172c0,22.732,18.424,41.157,41.156,41.157
		c22.731,0,41.173-18.424,41.173-41.157C389.183,316.766,370.741,298.325,348.01,298.325z"/>
</g>
<g>
</g>
<g>
</g>
<g>
</g>
<g>
</g>
<g>
</g>
<g>
</g>
<g>
</g>
<g>
</g>
<g>
</g>
<g>
</g>
<g>
</g>
<g>
</g>
<g>
</g>
<g>
</g>
<g>
</g>
</svg>
