<svg xmlns="http://www.w3.org/2000/svg" height="512" width="512"  xmlns:v="https://vecta.io/nano"><path d="M448.621 100.466c-30.822-39.556-61.39-63.98-62.677-65-5.824-4.62-14.063-4.62-19.888 0-17.481 13.866-44.426 40.868-65.946 69.264C253.2 43.388 204.042 5.085 201.783 3.339a16 16 0 0 0-19.566 0c-1.858 1.436-46.028 35.813-90.711 91.666C39.777 159.667 0 237.556 0 320c0 105.87 86.131 192 192 192 77.779 0 144.606-46.206 174.736-112.33C445.965 405.153 512 340.576 512 260.8c0-51.68-21.916-107.123-63.379-160.334zM192 480c-88.224 0-160-71.776-160-160 0-107.109 79.582-214.335 160.005-283.248 17.301 14.817 54.69 49.122 88.936 95.762C254.062 175.638 240 219.424 240 260.8c0 61.857 39.628 114.41 94.26 132.484C307.077 445.8 251.986 480 192 480zm184-112c-57.346 0-104-48.09-104-107.2 0-89.047 76.242-166.422 104-191.635C403.768 94.389 480 171.76 480 260.8c0 59.111-46.654 107.2-104 107.2z"/></svg>