<svg viewBox="-31 0 512 512" xmlns="http://www.w3.org/2000/svg"><path d="m155.769531 391 69.230469 121 69.230469-121h155.769531l-77.882812-135 77.882812-135h-155.769531l-69.230469-121-69.230469 121h-155.769531l77.882812 135-77.882812 135zm69.230469 61-34.605469-61h69.210938zm-51.910156-91-60.558594-105 60.558594-105h103.816406l60.558594 105-60.558594 105zm224.9375 0h-86.488282l43.25-74.96875zm0-210-43.238282 74.96875-43.25-74.96875zm-173.027344-91 34.605469 61h-69.210938zm-173.027344 91h86.488282l-43.25 74.96875zm86.488282 210h-86.488282l43.238282-74.96875zm0 0"/></svg>