<svg height="512pt" viewBox="0 0 512 512" width="512pt" xmlns="http://www.w3.org/2000/svg"><path d="m256 0c-141.484375 0-256 114.496094-256 256 0 141.484375 114.496094 256 256 256 141.484375 0 256-114.496094 256-256 0-141.484375-114.496094-256-256-256zm0 472c-119.378906 0-216-96.609375-216-216 0-119.378906 96.609375-216 216-216 119.378906 0 216 96.609375 216 216 0 119.378906-96.609375 216-216 216zm0 0"/><path d="m313.886719 285.601562c4.640625-9.054687 7.113281-19.136718 7.113281-29.601562 0-35.921875-29.070312-65-65-65-10.46875 0-20.546875 2.472656-29.601562 7.113281l-69.390626-69.390625c-7.8125-7.8125-20.476562-7.8125-28.285156 0-7.8125 7.808594-7.8125 20.472656 0 28.285156l69.390625 69.390626c-4.640625 9.054687-7.113281 19.136718-7.113281 29.601562 0 35.921875 29.070312 65 65 65 10.46875 0 20.546875-2.472656 29.601562-7.113281l16.359376 16.359375c7.808593 7.808594 20.476562 7.8125 28.285156 0 7.8125-7.808594 7.8125-20.472656 0-28.285156zm-57.886719-4.601562c-13.816406 0-25-11.179688-25-25 0-13.769531 11.160156-25 25-25 13.816406 0 25 11.179688 25 25 0 13.769531-11.160156 25-25 25zm0 0"/></svg>