<svg id="Capa_1" enable-background="new 0 0 512 512" height="512" viewBox="0 0 512 512" width="512" xmlns="http://www.w3.org/2000/svg"><g><path d="m512 235.644-62.649-9.103-28.018-56.77-28.017 56.77-62.649 9.103 45.333 44.189-10.702 62.396 56.035-29.459 56.035 29.459-10.701-62.396z"/><path d="m188.225 256c0-115.808 93.881-209.688 209.688-209.688 1.688 0 3.37.024 5.048.064-41.594-29.215-92.271-46.376-146.961-46.376-141.385 0-256 114.615-256 256s114.615 256 256 256c54.69 0 105.367-17.161 146.961-46.375-1.678.04-3.36.064-5.048.064-115.808-.001-209.688-93.881-209.688-209.689z"/></g></svg>