<?xml version="1.0" encoding="iso-8859-1"?>
<!-- Generator: Adobe Illustrator 18.0.0, SVG Export Plug-In . SVG Version: 6.00 Build 0)  -->
<!DOCTYPE svg PUBLIC "-//W3C//DTD SVG 1.1//EN" "http://www.w3.org/Graphics/SVG/1.1/DTD/svg11.dtd">
<svg version="1.1" id="Capa_1" xmlns="http://www.w3.org/2000/svg" xmlns:xlink="http://www.w3.org/1999/xlink" x="0px" y="0px"
	 viewBox="0 0 458.777 458.777" style="enable-background:new 0 0 458.777 458.777;" xml:space="preserve">
<path d="M319.432,76.468L319.432,76.468c71.746,44.997,76.581,147.757,9.376,199.291l-86.333,66.202l0.67-13.542l21.487-14.325
	c-1.289-10.047-2.357-20.093-3.235-30.14c47.808-13.891,82.856-58.09,82.856-110.319c0-49.239-31.148-91.338-74.767-107.639
	c0.742-5.208,1.513-10.416,2.317-15.624L229.388,0l-42.414,50.374c0.804,5.208,1.575,10.416,2.317,15.624
	c-43.619,16.301-74.758,58.41-74.758,107.639c0,52.229,35.039,96.428,82.847,110.319c-0.878,10.046-1.946,20.093-3.235,30.139
	l21.487,14.325l0.67,13.542l-86.333-66.202c-67.205-51.534-62.371-154.294,9.376-199.291h0
	C29.667,103.466-3.313,243.333,82.749,316.486l58.504,49.728c5.063,4.304,7.161,11.193,5.277,17.566
	c-0.032,0.108-0.064,0.215-0.096,0.322c-1.03,3.41,2.93,6.142,5.787,4.013l39.695-29.588l15.302,10.47l-49.209,37.734
	c-4.644,3.561-7.977,8.684-8.882,14.466c-2.738,17.505,16.639,29.159,31.803,23.262c9.099-3.538,11.373-11.879,11.373-19.335
	c0-9.623,4.525-18.679,12.466-24.113l13.98-9.565l0.746,15.089c0,6.53-2.243,12.866-6.381,17.917
	c-3.479,4.247-5.327,9.881-4.586,15.948c1.163,9.527,8.899,17.174,18.437,18.24c12.695,1.419,23.445-8.478,23.445-20.886
	c0-4.909-1.684-9.422-4.504-12.998c-4.128-5.233-6.625-11.563-6.625-18.229l0.746-15.082l13.98,9.565
	c7.942,5.434,12.467,14.49,12.467,24.113c0,7.456,2.275,15.796,11.373,19.335c15.164,5.897,34.541-5.757,31.803-23.262
	c-0.904-5.781-4.238-10.905-8.882-14.466l-49.209-37.734l15.303-10.47l39.695,29.588c2.856,2.129,6.817-0.603,5.787-4.013
	c-0.032-0.107-0.064-0.214-0.096-0.322c-1.884-6.373,0.213-13.262,5.277-17.566l58.504-49.728
	C462.09,243.333,429.109,103.466,319.432,76.468z M266.483,88.597c32.76,14.33,55.7,47.06,55.7,85.04
	c0,40.54-26.13,75.09-62.43,87.69h0c-3.348-57.583-0.409-115.167,6.729-172.75C266.48,88.583,266.484,88.59,266.483,88.597z
	 M136.603,173.636c0-37.98,22.94-70.7,55.69-85.04c-0.001-0.012,0.002-0.024,0.001-0.035c7.139,57.587,10.079,115.175,6.731,172.762
	C162.729,248.721,136.603,214.173,136.603,173.636z"/>
<g>
</g>
<g>
</g>
<g>
</g>
<g>
</g>
<g>
</g>
<g>
</g>
<g>
</g>
<g>
</g>
<g>
</g>
<g>
</g>
<g>
</g>
<g>
</g>
<g>
</g>
<g>
</g>
<g>
</g>
</svg>
